<svg version="1.2" xmlns="http://www.w3.org/2000/svg" viewBox="0 0 128 128" width="128" height="128">
	<title>folder</title>
	<defs>
		<linearGradient id="g1" x2="1" gradientUnits="userSpaceOnUse" gradientTransform="matrix(104,0,0,82.031,12,112)">
			<stop offset="0" stop-color="#62a0ea"/>
			<stop offset=".058" stop-color="#afd4ff"/>
			<stop offset=".122" stop-color="#62a0ea"/>
			<stop offset=".873" stop-color="#62a0ea"/>
			<stop offset=".956" stop-color="#c0d5ea"/>
			<stop offset="1" stop-color="#62a0ea"/>
		</linearGradient>
	</defs>
	<style>
		.s0 { fill: #438de6 } 
		.s1 { fill: url(#g1) } 
		.s2 { fill: #a4caee } 
	</style>
	<g id="Layer 1">
		<path class="s0" d="m22 12c-5.6 0-10 4.5-10 10v86c0 5.6 4.4 10 10 10h84c5.6 0 10-4.4 10-10v-72.1c0-6.6-5.4-12-12-12h-46c-2.5 0-4.7-1.3-5.8-3.5l-1.5-3c-1.7-3.3-5-5.4-8.7-5.4z"/>
		<path class="s1" d="m66 36c-2.8 0-5.3 1.1-7.1 2.9-2.2 2.2-5.3 5.1-8.6 5.1h-28.3c-5.6 0-10 4.5-10 10v54c0 5.6 4.4 10 10 10h84c5.6 0 10-4.4 10-10v-62c0-5.5-4.4-10-10-10z"/>
		<path class="s2" d="m66 32c-2.8 0-5.3 1.1-7.1 2.9-2.2 2.2-5.3 5.1-8.6 5.1h-28.3c-5.6 0-10 4.5-10 10v56c0 5.5 4.4 10 10 10h84c5.6 0 10-4.5 10-10v-64c0-5.5-4.4-10-10-10z"/>
	</g>
	<path class="s0" d="m37 76.3v9.6c0 5.3 4.3 9.6 9.6 9.6h1.9c4.2 0 7.7-3.4 7.7-7.7 0-4.2 3.4-7.6 7.6-7.6 4.3 0 7.7 3.4 7.7 7.6 0.5 4.8 4.8 8.2 9.6 7.7 5.3 0 9.6-4.3 9.6-9.6v-9.6c0-8.4-6.9-15.3-15.4-15.3h-23c-8.4 0-15.3 6.9-15.3 15.3zm12.5-7.6h1.9c0.5 0 0.9 0.4 0.9 0.9v2.9h2.9c0.5 0 1 0.4 1 1v1.9c0 0.5-0.5 0.9-1 0.9h-2.9v2.9c0 0.5-0.4 1-0.9 1h-1.9c-0.6 0-1-0.5-1-1v-2.9h-2.9c-0.5 0-0.9-0.4-0.9-0.9v-1.9c0-0.6 0.4-1 0.9-1h2.9v-2.9c0-0.5 0.4-0.9 1-0.9zm23.9 2.8c1.6 0 2.9 1.3 2.9 2.9 0 1.6-1.3 2.9-2.9 2.9-1.6 0-2.9-1.3-2.9-2.9 0-1.6 1.3-2.9 2.9-2.9zm7.7 3.9c1.6 0 2.8 1.3 2.8 2.8 0 1.6-1.2 2.9-2.8 2.9-1.6 0-2.9-1.3-2.9-2.9 0-1.5 1.3-2.8 2.9-2.8z"/>
</svg>