<svg version="1.2" xmlns="http://www.w3.org/2000/svg" viewBox="0 0 128 128" width="128" height="128">
	<title>folder</title>
	<defs>
		<linearGradient id="g1" x2="1" gradientUnits="userSpaceOnUse" gradientTransform="matrix(104,0,0,82.031,12,112)">
			<stop offset="0" stop-color="#62a0ea"/>
			<stop offset=".058" stop-color="#afd4ff"/>
			<stop offset=".122" stop-color="#62a0ea"/>
			<stop offset=".873" stop-color="#62a0ea"/>
			<stop offset=".956" stop-color="#c0d5ea"/>
			<stop offset="1" stop-color="#62a0ea"/>
		</linearGradient>
	</defs>
	<style>
		.s0 { fill: #438de6 } 
		.s1 { fill: url(#g1) } 
		.s2 { fill: #a4caee } 
	</style>
	<g id="Layer 1">
		<path class="s0" d="m22 12c-5.6 0-10 4.5-10 10v86c0 5.6 4.4 10 10 10h84c5.6 0 10-4.4 10-10v-72.1c0-6.6-5.4-12-12-12h-46c-2.5 0-4.7-1.3-5.8-3.5l-1.5-3c-1.7-3.3-5-5.4-8.7-5.4z"/>
		<path class="s1" d="m66 36c-2.8 0-5.3 1.1-7.1 2.9-2.2 2.2-5.3 5.1-8.6 5.1h-28.3c-5.6 0-10 4.5-10 10v54c0 5.6 4.4 10 10 10h84c5.6 0 10-4.4 10-10v-62c0-5.5-4.4-10-10-10z"/>
		<path class="s2" d="m66 32c-2.8 0-5.3 1.1-7.1 2.9-2.2 2.2-5.3 5.1-8.6 5.1h-28.3c-5.6 0-10 4.5-10 10v56c0 5.5 4.4 10 10 10h84c5.6 0 10-4.5 10-10v-64c0-5.5-4.4-10-10-10z"/>
	</g>
	<path class="s0" d="m62.2 57c-1.4 0-2.4 1.1-2.4 2.4h-4.7c-3.9 0-7.1 3.2-7.1 7v21.3c0 3.8 3.2 7 7.1 7h18.8c3.9 0 7.1-3.2 7.1-7v-21.3c0-3.8-3.2-7-7.1-7h-4.7c0-1.3-1-2.4-2.3-2.4zm-7.1 7.1h2.4v2.3c0 1.3 1 2.4 2.3 2.4h9.4c1.4 0 2.4-1.1 2.4-2.4v-2.3h2.4c1.3 0 2.3 1 2.3 2.3v21.3c0 1.3-1 2.3-2.3 2.3h-18.9c-1.4 0-2.4-1-2.4-2.3v-21.3c0-1.3 1-2.3 2.4-2.3z"/>
</svg>